# xmcd
#
# Track frame offsets:
#	150
#	17405
#	32189
#	47656
#	66284
#	82282
#	95555
#	113268
#	132038
#	146034
#	164381
#
# Disc length: 2406 seconds
# Revision: 0
# Processed by: cddbd v1.5.2PL0 Copyright (c) Steve Scherf et al.
# Submitted via: dBpowerAMP V12.0
#
DISCID=8f09640b
DTITLE=Nico Arzbachrene - Zeilen Op Een Vreemde Zee
DYEAR=2013
DGENRE=Undefined
TTITLE0=Als Ik het Niet Meer Zie
TTITLE1=Samen Konden Wij De Wereld Aan
TTITLE2=Zeilen Op Een Vreemde Zee
TTITLE3=Heilige Grond
TTITLE4=Is Dit Wel Toeval
TTITLE5=Tot Vandaag
TTITLE6=Vaarwel Dan
TTITLE7=Sneeuw
TTITLE8=Water
TTITLE9=Je Was Erbij
TTITLE10=We Hebben Alles
EXTD=
EXTT0=
EXTT1=
EXTT2=
EXTT3=
EXTT4=
EXTT5=
EXTT6=
EXTT7=
EXTT8=
EXTT9=
EXTT10=
PLAYORDER=
